<svg width="311" height="432" viewBox="0 0 311 432" fill="none" xmlns="http://www.w3.org/2000/svg">
<path d="M259.432 184.18H259.932H266.687H266.704C267.455 184.18 268.974 184.18 270.284 185.393C271.6 186.612 272.591 188.942 272.591 193.32V341.28C272.591 346.303 274.588 351.121 278.143 354.673C281.697 358.224 286.518 360.22 291.546 360.22C296.573 360.22 301.394 358.224 304.949 354.673C308.503 351.121 310.5 346.303 310.5 341.28V157.615C310.502 144.017 306.546 130.712 299.114 119.322L299.113 119.321L281.573 92.3215L259.432 184.18ZM259.432 184.18V184.68M259.432 184.18V184.68M259.432 184.68V414.137V414.637M259.432 184.68V414.637M259.432 414.637H259.932M259.432 414.637H259.932M259.932 414.637H280.508M259.932 414.637H280.508M280.508 414.637V431.5H0.5V414.637H21.0756H21.5756V414.137V86.5296C21.5756 75.2312 23.8028 64.0434 28.1301 53.6051C32.4573 43.1669 38.7998 33.6826 46.7955 25.6938C54.7912 17.7051 64.2833 11.3684 74.7299 7.04558C85.1766 2.72279 96.373 0.49859 107.68 0.500001H259.432V173.88V174.38H259.932H266.687C271.552 174.38 275.459 176.188 278.158 179.425C280.867 182.672 282.399 187.408 282.399 193.32V341.28C282.399 343.704 283.363 346.029 285.078 347.743C286.794 349.457 289.12 350.42 291.546 350.42C293.971 350.42 296.298 349.457 298.013 347.743C299.728 346.029 300.692 343.704 300.692 341.28V157.615C300.693 145.915 297.285 134.468 290.883 124.672L273.354 97.6729L273.353 97.6721C272.643 96.5831 272.395 95.2569 272.663 93.9851C272.932 92.7134 273.695 91.6003 274.785 90.8906C275.875 90.181 277.202 89.933 278.475 90.2014C279.748 90.4697 280.862 91.2321 281.572 92.3208L280.508 414.637Z" fill="white" stroke="black"/>
</svg>
